<svg width="73" height="73" viewBox="0 0 73 73" fill="none" xmlns="http://www.w3.org/2000/svg">
<circle cx="36.5" cy="36.5" r="36.5" fill="#00A884"/>
<path d="M49.5096 22.8095C45.9671 19.2586 41.2493 17.3055 36.2357 17.3055C25.8872 17.3055 17.4663 25.7264 17.4663 36.0749C17.4663 39.3807 18.3287 42.6104 19.9689 45.4596L17.3057 55.1825L27.2568 52.57C29.9962 54.0665 33.0821 54.8528 36.2273 54.8528H36.2357C46.5758 54.8528 55.1827 46.4319 55.1827 36.0834C55.1827 31.0698 53.0521 26.3605 49.5096 22.8095ZM36.2357 51.6908C33.4288 51.6908 30.681 50.9383 28.2883 49.5179L27.7218 49.1797L21.8205 50.7269L23.393 44.9693L23.021 44.3774C21.4569 41.8918 20.6368 39.0256 20.6368 36.0749C20.6368 27.4765 27.6373 20.476 36.2442 20.476C40.4123 20.476 44.3269 22.0993 47.2691 25.05C50.2113 28.0007 52.0206 31.9152 52.0122 36.0834C52.0122 44.6903 44.8341 51.6908 36.2357 51.6908ZM44.7919 40.0064C44.3269 39.7696 42.0187 38.6367 41.5875 38.4845C41.1563 38.3239 40.8435 38.2478 40.5307 38.7213C40.2179 39.1947 39.3217 40.2431 39.0427 40.5644C38.7721 40.8772 38.4931 40.9195 38.0281 40.6827C35.2719 39.3046 33.4626 38.2224 31.6448 35.1027C31.1629 34.2741 32.1267 34.3333 33.0229 32.5409C33.1751 32.2281 33.099 31.9575 32.9807 31.7208C32.8623 31.484 31.9238 29.1759 31.5349 28.2374C31.1544 27.3243 30.7655 27.4512 30.4781 27.4342C30.2075 27.4173 29.8947 27.4173 29.5819 27.4173C29.2691 27.4173 28.7618 27.5357 28.3306 28.0007C27.8994 28.4742 26.6904 29.6071 26.6904 31.9152C26.6904 34.2234 28.3729 36.4554 28.6011 36.7682C28.8379 37.081 31.9069 41.8157 36.6162 43.8533C39.5922 45.1384 40.759 45.2483 42.247 45.0285C43.1517 44.8932 45.0201 43.8955 45.4091 42.7964C45.798 41.6973 45.798 40.7588 45.6796 40.5644C45.5697 40.353 45.2569 40.2346 44.7919 40.0064Z" fill="white"/>
</svg>
